<svg xmlns="http://www.w3.org/2000/svg" height="544" width="1184" shape-rendering="crispEdges"><path fill-opacity=".342" d="M16 512v16H0v16h1168v-16h16v-16z"/><path d="M48 128h16v16H48z" fill="#8a6f4f"/><path d="M64 128h16v16H64z" fill="#957856"/><path d="M80 128h16v16H80z" fill="#a0805c"/><path d="M96 128h16v16H96z" fill="#ac8a63"/><path d="M112 128h16v16h-16z" fill="#b9946a"/><path fill="#c49d70" d="M128 128v16h-16v16H96v16H80v64h16v-16h16v16h16v-16h16v16h16v-16h16v16h16v-16h16v16h16v-80h-16v-16h-16v-16z"/><path d="M32 144h16v16H32z" fill="#8a6f4f"/><path d="M48 144h16v16H48z" fill="#957856"/><path d="M64 144h16v16H64z" fill="#a0805c"/><path d="M80 144h16v16H80z" fill="#ac8a63"/><path d="M96 144h16v16H96z" fill="#b9946a"/><path d="M16 160h16v16H16z" fill="#8a6f4f"/><path d="M32 160h16v16H32z" fill="#957856"/><path d="M48 160h16v16H48z" fill="#a0805c"/><path d="M64 160h16v16H64z" fill="#ac8a63"/><path d="M80 160h16v16H80z" fill="#b9946a"/><path d="M0 176h16v16H0z" fill="#8a6f4f"/><path d="M16 176h16v16H16z" fill="#957856"/><path d="M32 176h16v16H32z" fill="#a0805c"/><path d="M48 176h16v16H48z" fill="#ac8a63"/><path d="M64 176h16v16H64z" fill="#b9946a"/><path d="M0 192h16v16H0z" fill="#8a6f4f"/><path d="M16 192h16v16H16z" fill="#957856"/><path d="M32 192h16v16H32z" fill="#a0805c"/><path d="M48 192h16v16H48z" fill="#ac8a63"/><path d="M64 192h16v16H64z" fill="#b9946a"/><path d="M0 208h16v16H0z" fill="#8a6f4f"/><path d="M16 208h16v16H16z" fill="#957856"/><path d="M32 208h16v16H32z" fill="#a0805c"/><path d="M48 208h16v16H48z" fill="#ac8a63"/><path d="M64 208h16v16H64z" fill="#b9946a"/><path d="M0 224h16v16H0z" fill="#8a6f4f"/><path d="M16 224h16v16H16z" fill="#957856"/><path d="M32 224h16v16H32z" fill="#a0805c"/><path d="M48 224h16v16H48z" fill="#ac8a63"/><path d="M64 224h16v16H64z" fill="#b9946a"/><path d="M96 224h16v16H96zm32 0h16v16h-16zm32 0h16v16h-16zm32 0h16v16h-16z" fill="#ffdbbf"/><path d="M0 240h16v16H0z" fill="#8a6f4f"/><path d="M16 240h16v16H16z" fill="#957856"/><path d="M32 240h16v16H32z" fill="#a0805c"/><path d="M48 240h16v16H48z" fill="#ac8a63"/><path d="M64 240h16v16H64z" fill="#b9946a"/><path d="M80 240h16v16H80zm16 0h16v16H96zm16 0h16v16h-16zm16 0h16v16h-16zm16 0h16v16h-16zm16 0h16v16h-16zm16 0h16v16h-16zm16 0h16v16h-16z" fill="#ffdbbf"/><path d="M16 256h16v16H16z" fill="#957856"/><path d="M32 256h16v16H32z" fill="#a0805c"/><path d="M48 256h16v16H48z" fill="#ac8a63"/><path d="M64 256h16v16H64z" fill="#f3d1b6"/><path d="M80 256h16v16H80z" fill="#ffdbbf"/><path d="M96 256h16v16H96z" fill="#6f7b8f"/><path d="M112 256h16v16h-16zm16 0h16v16h-16zm16 0h16v16h-16zm16 0h16v16h-16z" fill="#ffdbbf"/><path d="M176 256h16v16h-16z" fill="#6f7b8f"/><path d="M192 256h16v16h-16z" fill="#ffdbbf"/><path d="M16 272h16v16H16z" fill="#e5c5ab"/><path d="M32 272h16v16H32z" fill="#ffdbbf"/><path d="M48 272h16v16H48z" fill="#ac8a63"/><path d="M64 272h16v16H64z" fill="#f3d1b6"/><path d="M80 272h16v16H80z" fill="#ffdbbf"/><path d="M96 272h16v16H96z" fill="#8190a7"/><path d="M112 272h16v16h-16zm16 0h16v16h-16zm16 0h16v16h-16zm16 0h16v16h-16z" fill="#ffdbbf"/><path d="M176 272h16v16h-16z" fill="#8190a7"/><path d="M192 272h16v16h-16z" fill="#ffdbbf"/><path d="M16 288h16v16H16z" fill="#e5c5ab"/><path d="M32 288h16v16H32z" fill="#ffdbbf"/><path d="M48 288h16v16H48z" fill="#e5c5ab"/><path d="M64 288h16v16H64z" fill="#f3d1b6"/><path d="M80 288h16v16H80zm16 0h16v16H96zm16 0h16v16h-16zm16 0h16v16h-16zm16 0h16v16h-16zm16 0h16v16h-16zm16 0h16v16h-16zm16 0h16v16h-16z" fill="#ffdbbf"/><path d="M48 304h16v16H48z" fill="#e5c5ab"/><path d="M64 304h16v16H64z" fill="#f3d1b6"/><path d="M80 304h16v16H80zm16 0h16v16H96z" fill="#ffdbbf"/><path fill="#fff" d="M112 304v16h16v16h32v-32z"/><path d="M160 304h16v16h-16zm16 0h16v16h-16zm16 0h16v16h-16z" fill="#ffdbbf"/><path d="M64 320h16v16H64z" fill="#e5c5ab"/><path d="M80 320h16v16H80z" fill="#f3d1b6"/><path d="M96 320h16v16H96zm16 0h16v16h-16zm48 0h16v16h-16zm16 0h16v16h-16z" fill="#ffdbbf"/><path d="M80 336h16v16H80z" fill="#e5c5ab"/><path d="M96 336h16v16H96z" fill="#f3d1b6"/><path d="M112 336h16v16h-16zm16 0h16v16h-16zm16 0h16v16h-16zm16 0h16v16h-16z" fill="#ffdbbf"/><path d="M80 352h16v16H80z" fill="#0d8558"/><path fill="#10a26a" d="M96 352v16H80v16H64v32h32v32h80v-32h16v-48h-16v-16h-16v16h-32v-16z"/><path d="M128 352h16v16h-16zm16 0h16v16h-16z" fill="#ffdbbf"/><path d="M64 368h16v16H64zm-16 16h16v16H48zm0 16h16v16H48z" fill="#0d8558"/><path d="M48 416h16v16H48z" fill="#e5c5ab"/><path d="M64 416h16v16H64z" fill="#ffdbbf"/><path d="M80 416h16v16H80z" fill="#0d8558"/><path d="M176 416h16v16h-16z" fill="#ffdbbf"/><path d="M48 432h16v16H48z" fill="#e5c5ab"/><path d="M64 432h16v16H64z" fill="#ffdbbf"/><path d="M80 432h16v16H80z" fill="#0d8558"/><path d="M176 432h16v16h-16z" fill="#ffdbbf"/><path d="M48 448h16v16H48z" fill="#e5c5ab"/><path d="M64 448h16v16H64z" fill="#ffdbbf"/><path d="M80 448h16v16H80z" fill="#585548"/><path d="M96 448h16v16H96zm16 0h16v16h-16zm16 0h16v16h-16zm16 0h16v16h-16zm16 0h16v16h-16z" fill="#6a6656"/><path d="M176 448h16v16h-16z" fill="#ffdbbf"/><path d="M48 464h16v16H48z" fill="#e5c5ab"/><path d="M64 464h16v16H64z" fill="#ffdbbf"/><path d="M80 464h16v16H80z" fill="#585548"/><path d="M96 464h16v16H96z" fill="#6a6656"/><path d="M144 464h16v16h-16z" fill="#585548"/><path d="M160 464h16v16h-16z" fill="#6a6656"/><path d="M176 464h16v16h-16z" fill="#ffdbbf"/><path d="M80 480h16v16H80z" fill="#e5c5ab"/><path d="M96 480h16v16H96z" fill="#ffdbbf"/><path d="M144 480h16v16h-16z" fill="#e5c5ab"/><path d="M160 480h16v16h-16z" fill="#ffdbbf"/><path d="M80 496h16v16H80z" fill="#e5c5ab"/><path d="M96 496h16v16H96z" fill="#ffdbbf"/><path d="M144 496h16v16h-16z" fill="#e5c5ab"/><path d="M160 496h16v16h-16z" fill="#ffdbbf"/><path d="M80 512h16v16H80z" fill="#202d39"/><path d="M96 512h16v16H96z" fill="#2b3b4c"/><path d="M144 512h16v16h-16z" fill="#202d39"/><path d="M160 512h16v16h-16z" fill="#2b3b4c"/><path d="M304 32h16v16h-16z" fill="#1d1712"/><path d="M320 32h16v16h-16z" fill="#241d16"/><path d="M336 32h16v16h-16z" fill="#2d231b"/><path d="M352 32h16v16h-16z" fill="#352a20"/><path d="M368 32h16v16h-16z" fill="#3f3126"/><path d="M384 32h16v16h-16zm16 0h16v16h-16zm16 0h16v16h-16z" fill="#48382b"/><path d="M272 48h16v16h-16z" fill="#14100c"/><path d="M288 48h16v16h-16z" fill="#1d1712"/><path d="M304 48h16v16h-16z" fill="#241d16"/><path d="M320 48h16v16h-16z" fill="#2d231b"/><path d="M336 48h16v16h-16z" fill="#352a20"/><path d="M352 48h16v16h-16z" fill="#3f3126"/><path d="M368 48h16v16h-16zm16 0h16v16h-16zm16 0h16v16h-16zm16 0h16v16h-16zm16 0h16v16h-16z" fill="#48382b"/><path d="M256 64h16v16h-16z" fill="#14100c"/><path d="M272 64h16v16h-16z" fill="#1d1712"/><path d="M288 64h16v16h-16z" fill="#241d16"/><path d="M304 64h16v16h-16z" fill="#2d231b"/><path d="M320 64h16v16h-16z" fill="#352a20"/><path d="M336 64h16v16h-16z" fill="#3f3126"/><path d="M352 64h16v16h-16zm16 0h16v16h-16zm16 0h16v16h-16zm16 0h16v16h-16zm16 0h16v16h-16zm16 0h16v16h-16zm16 0h16v16h-16z" fill="#48382b"/><path d="M240 80h16v16h-16z" fill="#14100c"/><path d="M256 80h16v16h-16z" fill="#1d1712"/><path d="M272 80h16v16h-16z" fill="#241d16"/><path d="M288 80h16v16h-16z" fill="#2d231b"/><path d="M304 80h16v16h-16z" fill="#352a20"/><path d="M320 80h16v16h-16z" fill="#3f3126"/><path d="M336 80h16v16h-16zm16 0h16v16h-16zm16 0h16v16h-16zm16 0h16v16h-16zm16 0h16v16h-16zm16 0h16v16h-16zm16 0h16v16h-16zm16 0h16v16h-16z" fill="#48382b"/><path d="M240 96h16v16h-16z" fill="#14100c"/><path d="M256 96h16v16h-16z" fill="#1d1712"/><path d="M272 96h16v16h-16z" fill="#241d16"/><path d="M288 96h16v16h-16z" fill="#2d231b"/><path d="M304 96h16v16h-16z" fill="#352a20"/><path d="M320 96h16v16h-16z" fill="#3f3126"/><path d="M336 96h16v16h-16zm16 0h16v16h-16zm16 0h16v16h-16zm16 0h16v16h-16zm16 0h16v16h-16zm16 0h16v16h-16zm16 0h16v16h-16zm16 0h16v16h-16z" fill="#f3d1b6"/><path d="M240 112h16v16h-16z" fill="#14100c"/><path d="M256 112h16v16h-16z" fill="#1d1712"/><path d="M272 112h16v16h-16z" fill="#241d16"/><path d="M288 112h16v16h-16z" fill="#2d231b"/><path d="M304 112h16v16h-16z" fill="#352a20"/><path d="M320 112h16v16h-16z" fill="#f3d1b6"/><path d="M336 112h16v16h-16zm16 0h16v16h-16zm16 0h16v16h-16zm16 0h16v16h-16zm16 0h16v16h-16zm16 0h16v16h-16zm16 0h16v16h-16zm16 0h16v16h-16z" fill="#ffdbbf"/><path d="M240 128h16v16h-16z" fill="#14100c"/><path d="M256 128h16v16h-16z" fill="#1d1712"/><path d="M272 128h16v16h-16z" fill="#241d16"/><path d="M288 128h16v16h-16z" fill="#2d231b"/><path d="M304 128h16v16h-16z" fill="#f3d1b6"/><path d="M320 128h16v16h-16zm16 0h16v16h-16zm16 0h16v16h-16zm16 0h16v16h-16zm16 0h16v16h-16zm16 0h16v16h-16zm16 0h16v16h-16zm16 0h16v16h-16zm16 0h16v16h-16z" fill="#ffdbbf"/><path d="M240 144h16v16h-16z" fill="#14100c"/><path d="M256 144h16v16h-16z" fill="#1d1712"/><path d="M272 144h16v16h-16z" fill="#241d16"/><path d="M288 144h16v16h-16z" fill="#2d231b"/><path d="M304 144h16v16h-16z" fill="#f3d1b6"/><path d="M320 144h16v16h-16zm16 0h16v16h-16zm16 0h16v16h-16zm16 0h16v16h-16zm16 0h16v16h-16zm16 0h16v16h-16zm16 0h16v16h-16zm16 0h16v16h-16zm16 0h16v16h-16z" fill="#ffdbbf"/><path d="M240 160h16v16h-16z" fill="#14100c"/><path d="M256 160h16v16h-16z" fill="#1d1712"/><path d="M272 160h16v16h-16z" fill="#241d16"/><path d="M288 160h16v16h-16z" fill="#2d231b"/><path d="M304 160h16v16h-16z" fill="#f3d1b6"/><path d="M320 160h16v16h-16zm16 0h16v16h-16z" fill="#ffdbbf"/><path d="M352 160h16v16h-16z" fill="#46463a"/><path d="M368 160h16v16h-16zm16 0h16v16h-16zm16 0h16v16h-16zm16 0h16v16h-16z" fill="#ffdbbf"/><path d="M432 160h16v16h-16z" fill="#46463a"/><path d="M448 160h16v16h-16z" fill="#ffdbbf"/><path d="M240 176h16v16h-16z" fill="#14100c"/><path d="M256 176h16v16h-16z" fill="#f3d1b6"/><path d="M272 176h16v16h-16z" fill="#ffdbbf"/><path d="M288 176h16v16h-16z" fill="#2d231b"/><path d="M304 176h16v16h-16z" fill="#f3d1b6"/><path d="M320 176h16v16h-16zm16 0h16v16h-16z" fill="#ffdbbf"/><path d="M352 176h16v16h-16z" fill="#4f4e41"/><path d="M368 176h16v16h-16zm16 0h16v16h-16zm16 0h16v16h-16zm16 0h16v16h-16z" fill="#ffdbbf"/><path d="M432 176h16v16h-16z" fill="#4f4e41"/><path d="M448 176h16v16h-16z" fill="#ffdbbf"/><path d="M240 192h16v16h-16z" fill="#14100c"/><path d="M256 192h16v16h-16z" fill="#f3d1b6"/><path d="M272 192h16v16h-16z" fill="#ffdbbf"/><path d="M288 192h16v16h-16z" fill="#2d231b"/><path d="M304 192h16v16h-16z" fill="#f3d1b6"/><path d="M320 192h16v16h-16zm16 0h16v16h-16zm16 0h16v16h-16zm16 0h16v16h-16zm16 0h16v16h-16zm16 0h16v16h-16zm16 0h16v16h-16zm16 0h16v16h-16zm16 0h16v16h-16z" fill="#ffdbbf"/><path d="M256 208h16v16h-16z" fill="#f3d1b6"/><path d="M272 208h16v16h-16z" fill="#ffdbbf"/><path d="M288 208h16v16h-16z" fill="#e6c6ae"/><path d="M304 208h16v16h-16z" fill="#f3d1b6"/><path d="M320 208h16v16h-16zm16 0h16v16h-16zm16 0h16v16h-16zm16 0h16v16h-16zm16 0h16v16h-16zm16 0h16v16h-16zm16 0h16v16h-16zm16 0h16v16h-16zm16 0h16v16h-16z" fill="#ffdbbf"/><path d="M272 224h16v16h-16z" fill="#14100c"/><path d="M288 224h16v16h-16z" fill="#e6c6ae"/><path d="M304 224h16v16h-16z" fill="#f3d1b6"/><path d="M320 224h16v16h-16zm16 0h16v16h-16zm16 0h16v16h-16z" fill="#ffdbbf"/><path fill="#fff" d="M368 224v16h16v16h32v-32z"/><path d="M416 224h16v16h-16zm16 0h16v16h-16zm16 0h16v16h-16z" fill="#ffdbbf"/><path d="M256 240h16v16h-16zm16 0h16v16h-16zm16 0h16v16h-16z" fill="#14100c"/><path d="M304 240h16v16h-16z" fill="#e6c6ae"/><path d="M320 240h16v16h-16z" fill="#f3d1b6"/><path d="M336 240h16v16h-16zm16 0h16v16h-16zm16 0h16v16h-16zm48 0h16v16h-16zm16 0h16v16h-16z" fill="#ffdbbf"/><path d="M256 256h16v16h-16zm16 0h16v16h-16zm16 0h16v16h-16zm16 0h16v16h-16z" fill="#14100c"/><path d="M320 256h16v16h-16z" fill="#e6c6ae"/><path d="M336 256h16v16h-16z" fill="#f3d1b6"/><path d="M352 256h16v16h-16zm16 0h16v16h-16zm16 0h16v16h-16zm16 0h16v16h-16zm16 0h16v16h-16z" fill="#ffdbbf"/><path d="M272 272h16v16h-16zm16 0h16v16h-16z" fill="#14100c"/><path d="M320 272h16v16h-16z" fill="#9781b9"/><path fill="#a28bc6" d="M336 272v16h-16v16h-16v16h16v16h16v64h112v-80h16v-16h-16v-16h-16v-16h-16v16h-16v16h-16v-16h-16v-16h-16z"/><path d="M368 272h16v16h-16zm16 0h16v16h-16zm16 0h16v16h-16z" fill="#ffdbbf"/><path d="M304 288h16v16h-16z" fill="#9781b9"/><path d="M384 288h16v16h-16z" fill="#ffd3af"/><path d="M288 304h16v16h-16z" fill="#9781b9"/><path d="M288 320h16v16h-16z" fill="#e5c5ab"/><path d="M304 320h16v16h-16zm144 0h16v16h-16z" fill="#ffdbbf"/><path d="M272 336h16v16h-16z" fill="#ddbea6"/><path d="M288 336h16v16h-16z" fill="#e5c5ab"/><path d="M304 336h16v16h-16z" fill="#ffdbbf"/><path d="M320 336h16v16h-16z" fill="#9781b9"/><path d="M448 336h16v16h-16z" fill="#ffdbbf"/><path d="M272 352h16v16h-16z" fill="#ddbea6"/><path d="M288 352h16v16h-16z" fill="#e5c5ab"/><path d="M304 352h16v16h-16z" fill="#ffdbbf"/><path d="M320 352h16v16h-16z" fill="#9781b9"/><path d="M448 352h16v16h-16z" fill="#ffdbbf"/><path d="M272 368h16v16h-16z" fill="#ddbea6"/><path d="M288 368h16v16h-16z" fill="#e5c5ab"/><path d="M304 368h16v16h-16z" fill="#ffdbbf"/><path d="M320 368h16v16h-16z" fill="#9781b9"/><path d="M448 368h16v16h-16z" fill="#ffdbbf"/><path d="M272 384h16v16h-16z" fill="#ddbea6"/><path d="M288 384h16v16h-16z" fill="#e5c5ab"/><path d="M304 384h16v16h-16z" fill="#ffdbbf"/><path d="M320 384h16v16h-16z" fill="#9781b9"/><path d="M448 384h16v16h-16z" fill="#ffdbbf"/><path d="M272 400h16v16h-16z" fill="#ddbea6"/><path d="M288 400h16v16h-16z" fill="#e5c5ab"/><path d="M304 400h16v16h-16z" fill="#ffdbbf"/><path d="M320 400h16v16h-16z" fill="#0f0f0f"/><path d="M336 400h16v16h-16zm16 0h16v16h-16zm16 0h16v16h-16zm16 0h16v16h-16zm16 0h16v16h-16zm16 0h16v16h-16zm16 0h16v16h-16z" fill="#2d2d2d"/><path d="M448 400h16v16h-16z" fill="#ffdbbf"/><path d="M288 416h16v16h-16z" fill="#e5c5ab"/><path d="M304 416h16v16h-16z" fill="#ffdbbf"/><path d="M320 416h16v16h-16z" fill="#0f0f0f"/><path d="M336 416h16v16h-16zm16 0h16v16h-16zm16 0h16v16h-16zm16 0h16v16h-16zm16 0h16v16h-16zm16 0h16v16h-16z" fill="#2d2d2d"/><path d="M432 416h16v16h-16z" fill="#e5c5ab"/><path d="M448 416h16v16h-16z" fill="#ffdbbf"/><path d="M320 432h16v16h-16z" fill="#0f0f0f"/><path d="M336 432h16v16h-16z" fill="#2d2d2d"/><path d="M400 432h16v16h-16z" fill="#0f0f0f"/><path d="M416 432h16v16h-16z" fill="#2d2d2d"/><path d="M320 448h16v16h-16z" fill="#0f0f0f"/><path d="M336 448h16v16h-16z" fill="#2d2d2d"/><path d="M400 448h16v16h-16z" fill="#0f0f0f"/><path d="M416 448h16v16h-16z" fill="#2d2d2d"/><path d="M320 464h16v16h-16z" fill="#0f0f0f"/><path d="M336 464h16v16h-16z" fill="#2d2d2d"/><path d="M400 464h16v16h-16z" fill="#0f0f0f"/><path d="M416 464h16v16h-16z" fill="#2d2d2d"/><path d="M320 480h16v16h-16z" fill="#0f0f0f"/><path d="M336 480h16v16h-16z" fill="#2d2d2d"/><path d="M400 480h16v16h-16z" fill="#0f0f0f"/><path d="M416 480h16v16h-16z" fill="#2d2d2d"/><path d="M320 496h16v16h-16z" fill="#0f0f0f"/><path d="M336 496h16v16h-16z" fill="#2d2d2d"/><path d="M400 496h16v16h-16z" fill="#0f0f0f"/><path d="M416 496h16v16h-16z" fill="#2d2d2d"/><path d="M320 512h16v16h-16z" fill="#ccc"/><path d="M336 512h16v16h-16z" fill="#efefef"/><path d="M400 512h16v16h-16z" fill="#ccc"/><path d="M416 512h16v16h-16z" fill="#efefef"/><path d="M512 0h16v16h-16z" fill="#070504"/><path d="M528 0h16v16h-16z" fill="#120d09"/><path d="M544 0h16v16h-16z" fill="#1e160f"/><path d="M560 0h16v16h-16zm16 0h16v16h-16zm16 0h16v16h-16zm16 0h16v16h-16zm16 0h16v16h-16zm16 0h16v16h-16zm16 0h16v16h-16z" fill="#281d14"/><path d="M496 16h16v16h-16z" fill="#070504"/><path d="M512 16h16v16h-16z" fill="#120d09"/><path d="M528 16h16v16h-16z" fill="#1e160f"/><path d="M544 16h16v16h-16zm16 0h16v16h-16zm16 0h16v16h-16zm16 0h16v16h-16zm16 0h16v16h-16zm16 0h16v16h-16zm16 0h16v16h-16zm16 0h16v16h-16zm16 0h16v16h-16z" fill="#281d14"/><path d="M480 32h16v16h-16z" fill="#070504"/><path d="M496 32h16v16h-16z" fill="#120d09"/><path d="M512 32h16v16h-16z" fill="#1e160f"/><path d="M528 32h16v16h-16zm16 0h16v16h-16zm16 0h16v16h-16zm16 0h16v16h-16zm16 0h16v16h-16zm16 0h16v16h-16zm16 0h16v16h-16zm16 0h16v16h-16zm16 0h16v16h-16zm16 0h16v16h-16z" fill="#281d14"/><path d="M480 48h16v16h-16z" fill="#070504"/><path d="M496 48h16v16h-16z" fill="#120d09"/><path d="M512 48h16v16h-16z" fill="#1e160f"/><path d="M528 48h16v16h-16z" fill="#281d14"/><path d="M544 48h16v16h-16zm16 0h16v16h-16zm16 0h16v16h-16zm16 0h16v16h-16z" fill="#f3d1b6"/><path d="M608 48h16v16h-16zm16 0h16v16h-16zm16 0h16v16h-16zm16 0h16v16h-16zm16 0h16v16h-16z" fill="#281d14"/><path d="M480 64h16v16h-16z" fill="#070504"/><path d="M496 64h16v16h-16z" fill="#120d09"/><path d="M512 64h16v16h-16z" fill="#1e160f"/><path d="M528 64h16v16h-16z" fill="#f3d1b6"/><path d="M544 64h16v16h-16zm16 0h16v16h-16zm16 0h16v16h-16zm16 0h16v16h-16zm16 0h16v16h-16zm16 0h16v16h-16zm16 0h16v16h-16z" fill="#ffdbbf"/><path d="M656 64h16v16h-16zm16 0h16v16h-16z" fill="#281d14"/><path d="M480 80h16v16h-16z" fill="#070504"/><path d="M496 80h16v16h-16z" fill="#120d09"/><path d="M512 80h16v16h-16z" fill="#1e160f"/><path d="M528 80h16v16h-16z" fill="#f3d1b6"/><path d="M544 80h16v16h-16zm16 0h16v16h-16zm16 0h16v16h-16zm16 0h16v16h-16zm16 0h16v16h-16zm16 0h16v16h-16zm16 0h16v16h-16zm16 0h16v16h-16zm16 0h16v16h-16z" fill="#ffdbbf"/><path d="M480 96h16v16h-16z" fill="#070504"/><path d="M496 96h16v16h-16z" fill="#120d09"/><path d="M512 96h16v16h-16z" fill="#1e160f"/><path d="M528 96h16v16h-16z" fill="#f3d1b6"/><path d="M544 96h16v16h-16zm16 0h16v16h-16zm16 0h16v16h-16zm16 0h16v16h-16zm16 0h16v16h-16zm16 0h16v16h-16zm16 0h16v16h-16zm16 0h16v16h-16zm16 0h16v16h-16z" fill="#ffdbbf"/><path d="M480 112h16v16h-16z" fill="#070504"/><path d="M496 112h16v16h-16z" fill="#120d09"/><path d="M512 112h16v16h-16z" fill="#1e160f"/><path d="M528 112h16v16h-16zm16 0h16v16h-16zm16 0h16v16h-16zm16 0h16v16h-16zm16 0h16v16h-16z"/><path d="M608 112h16v16h-16z" fill="#ffdbbf"/><path d="M624 112h16v16h-16zm16 0h16v16h-16zm16 0h16v16h-16zm16 0h16v16h-16zm16 0h16v16h-16zm-208 16h16v16h-16zm16 0h16v16h-16zm16 0h16v16h-16zm16 0h16v16h-16z"/><path d="M544 128h16v16h-16z" fill="#ffdbbf"/><path d="M560 128h16v16h-16z" fill="#261711"/><path d="M576 128h16v16h-16z" fill="#ffdbbf"/><path d="M592 128h16v16h-16zm16 0h16v16h-16zm16 0h16v16h-16z"/><path d="M640 128h16v16h-16z" fill="#ffdbbf"/><path d="M656 128h16v16h-16z" fill="#261711"/><path d="M672 128h16v16h-16z" fill="#ffdbbf"/><path d="M688 128h16v16h-16z"/><path d="M480 144h16v16h-16z" fill="#e5c5ab"/><path d="M496 144h16v16h-16z" fill="#ffdbbf"/><path d="M512 144h16v16h-16z" fill="#1e160f"/><path d="M528 144h16v16h-16z"/><path d="M544 144h16v16h-16z" fill="#ffdbbf"/><path d="M560 144h16v16h-16z" fill="#362119"/><path d="M576 144h16v16h-16z" fill="#ffdbbf"/><path d="M592 144h16v16h-16z"/><path d="M608 144h16v16h-16z" fill="#ffdbbf"/><path d="M624 144h16v16h-16z"/><path d="M640 144h16v16h-16z" fill="#ffdbbf"/><path d="M656 144h16v16h-16z" fill="#362119"/><path d="M672 144h16v16h-16z" fill="#ffdbbf"/><path d="M688 144h16v16h-16z"/><path d="M480 160h16v16h-16z" fill="#e5c5ab"/><path d="M496 160h16v16h-16z" fill="#ffdbbf"/><path d="M512 160h16v16h-16z" fill="#1e160f"/><path d="M528 160h16v16h-16z" fill="#f3d1b6"/><path d="M544 160h16v16h-16zm16 0h16v16h-16zm16 0h16v16h-16z"/><path d="M592 160h16v16h-16zm16 0h16v16h-16zm16 0h16v16h-16z" fill="#ffdbbf"/><path d="M640 160h16v16h-16zm16 0h16v16h-16zm16 0h16v16h-16z"/><path d="M480 176h16v16h-16z" fill="#e5c5ab"/><path d="M496 176h16v16h-16z" fill="#ffdbbf"/><path d="M512 176h16v16h-16z" fill="#1e160f"/><path d="M528 176h16v16h-16z" fill="#f3d1b6"/><path d="M544 176h16v16h-16zm16 0h16v16h-16zm16 0h16v16h-16z" fill="#ffdbbf"/><path d="M592 176h16v16h-16zm16 0h16v16h-16zm16 0h16v16h-16z" fill="#281d14"/><path d="M640 176h16v16h-16zm16 0h16v16h-16zm16 0h16v16h-16z" fill="#ffdbbf"/><path d="M512 192h16v16h-16z" fill="#1e160f"/><path d="M528 192h16v16h-16zm16 0h16v16h-16z" fill="#281d14"/><path d="M560 192h16v16h-16z" fill="#ffdbbf"/><path d="M576 192h16v16h-16z" fill="#281d14"/><path d="M592 192h16v16h-16zm16 0h16v16h-16zm16 0h16v16h-16z" fill="#ffdbbf"/><path d="M640 192h16v16h-16z" fill="#281d14"/><path d="M656 192h16v16h-16z" fill="#ffdbbf"/><path d="M672 192h16v16h-16z" fill="#281d14"/><path d="M512 208h16v16h-16z" fill="#1e160f"/><path d="M528 208h16v16h-16zm16 0h16v16h-16zm16 0h16v16h-16zm16 0h16v16h-16z" fill="#281d14"/><path d="M592 208h16v16h-16z" fill="#ffdbbf"/><path d="M608 208h16v16h-16z" fill="#281d14"/><path d="M624 208h16v16h-16z" fill="#ffdbbf"/><path d="M640 208h16v16h-16zm16 0h16v16h-16zm16 0h16v16h-16z" fill="#281d14"/><path d="M528 224h16v16h-16z" fill="#1e160f"/><path d="M544 224h16v16h-16zm16 0h16v16h-16zm16 0h16v16h-16zm16 0h16v16h-16zm16 0h16v16h-16zm16 0h16v16h-16zm16 0h16v16h-16zm16 0h16v16h-16z" fill="#281d14"/><path d="M544 240h16v16h-16z" fill="#1e160f"/><path d="M560 240h16v16h-16zm16 0h16v16h-16zm16 0h16v16h-16zm16 0h16v16h-16zm16 0h16v16h-16zm16 0h16v16h-16z" fill="#281d14"/><path d="M528 256h16v16h-16z" fill="#c4c3ae"/><path fill="#d1d0ba" d="M544 256v16h-16v80h16v-32h16v80h48v-96h-16v-16h-16v-16h-16v-16z"/><path d="M560 256h16v16h-16z" fill="#1e160f"/><path d="M576 256h16v16h-16zm16 0h16v16h-16zm16 0h16v16h-16zm16 0h16v16h-16zm16 0h16v16h-16z" fill="#281d14"/><path fill="#d1d0ba" d="M656 256v32h-16v16h-16v96h48v-48h16v-80h-16v-16z"/><path d="M512 272h16v16h-16z" fill="#c4c3ae"/><path d="M576 272h16v16h-16z" fill="#1e160f"/><path d="M592 272h16v16h-16zm16 0h16v16h-16zm16 0h16v16h-16z" fill="#281d14"/><path d="M640 272h16v16h-16z" fill="#dddbc5"/><path d="M512 288h16v16h-16z" fill="#c4c3ae"/><path d="M592 288h16v16h-16z" fill="#dddbc5"/><path d="M608 288h16v16h-16z" fill="#c3c2ae"/><path d="M624 288h16v16h-16z" fill="#dddbc5"/><path d="M496 304h16v16h-16z" fill="#bfbdaa"/><path d="M512 304h16v16h-16z" fill="#c4c3ae"/><path d="M608 304h16v16h-16z" fill="#f2f0d8"/><path d="M496 320h16v16h-16z" fill="#bfbdaa"/><path d="M512 320h16v16h-16zm32 0h16v16h-16z" fill="#c4c3ae"/><path d="M608 320h16v16h-16z" fill="#c3c2ae"/><path d="M496 336h16v16h-16z" fill="#bfbdaa"/><path d="M512 336h16v16h-16zm32 0h16v16h-16z" fill="#c4c3ae"/><path d="M608 336h16v16h-16z" fill="#f2f0d8"/><path d="M496 352h16v16h-16z" fill="#dbbca4"/><path d="M512 352h16v16h-16z" fill="#e5c5ab"/><path d="M528 352h16v16h-16z" fill="#ffdbbf"/><path d="M544 352h16v16h-16z" fill="#c4c3ae"/><path d="M608 352h16v16h-16z" fill="#c3c2ae"/><path d="M672 352h16v16h-16z" fill="#ffdbbf"/><path d="M496 368h16v16h-16z" fill="#dbbca4"/><path d="M512 368h16v16h-16z" fill="#e5c5ab"/><path d="M528 368h16v16h-16z" fill="#ffdbbf"/><path d="M544 368h16v16h-16z" fill="#c4c3ae"/><path d="M608 368h16v16h-16z" fill="#f2f0d8"/><path d="M672 368h16v16h-16z" fill="#ffdbbf"/><path d="M496 384h16v16h-16z" fill="#dbbca4"/><path d="M512 384h16v16h-16z" fill="#e5c5ab"/><path d="M528 384h16v16h-16z" fill="#ffdbbf"/><path d="M544 384h16v16h-16z" fill="#c4c3ae"/><path d="M608 384h16v16h-16z" fill="#c3c2ae"/><path d="M672 384h16v16h-16z" fill="#ffdbbf"/><path d="M496 400h16v16h-16z" fill="#dbbca4"/><path d="M512 400h16v16h-16z" fill="#e5c5ab"/><path d="M528 400h16v16h-16z" fill="#ffdbbf"/><path d="M544 400h16v16h-16z" fill="#241f0e"/><path d="M560 400h16v16h-16zm16 0h16v16h-16zm16 0h16v16h-16zm16 0h16v16h-16zm16 0h16v16h-16zm16 0h16v16h-16zm16 0h16v16h-16z" fill="#382f15"/><path d="M672 400h16v16h-16z" fill="#ffdbbf"/><path d="M512 416h16v16h-16z" fill="#e5c5ab"/><path d="M528 416h16v16h-16z" fill="#ffdbbf"/><path d="M544 416h16v16h-16z" fill="#241f0e"/><path d="M560 416h16v16h-16zm16 0h16v16h-16zm16 0h16v16h-16zm16 0h16v16h-16zm16 0h16v16h-16zm16 0h16v16h-16z" fill="#382f15"/><path d="M656 416h16v16h-16z" fill="#e5c5ab"/><path d="M672 416h16v16h-16z" fill="#ffdbbf"/><path d="M544 432h16v16h-16z" fill="#241f0e"/><path d="M560 432h16v16h-16z" fill="#382f15"/><path d="M624 432h16v16h-16z" fill="#241f0e"/><path d="M640 432h16v16h-16z" fill="#382f15"/><path d="M544 448h16v16h-16z" fill="#241f0e"/><path d="M560 448h16v16h-16z" fill="#382f15"/><path d="M624 448h16v16h-16z" fill="#241f0e"/><path d="M640 448h16v16h-16z" fill="#382f15"/><path d="M544 464h16v16h-16z" fill="#241f0e"/><path d="M560 464h16v16h-16z" fill="#382f15"/><path d="M624 464h16v16h-16z" fill="#241f0e"/><path d="M640 464h16v16h-16z" fill="#382f15"/><path d="M544 480h16v16h-16z" fill="#241f0e"/><path d="M560 480h16v16h-16z" fill="#382f15"/><path d="M624 480h16v16h-16z" fill="#241f0e"/><path d="M640 480h16v16h-16z" fill="#382f15"/><path d="M544 496h16v16h-16z" fill="#241f0e"/><path d="M560 496h16v16h-16z" fill="#382f15"/><path d="M624 496h16v16h-16z" fill="#241f0e"/><path d="M640 496h16v16h-16z" fill="#382f15"/><path d="M544 512h16v16h-16z" fill="#1f1610"/><path d="M560 512h16v16h-16z" fill="#36261d"/><path d="M624 512h16v16h-16z" fill="#1f1610"/><path d="M640 512h16v16h-16z" fill="#36261d"/><path d="M752 16h16v16h-16z" fill="#614e3a"/><path d="M768 16h16v16h-16z" fill="#6e5842"/><path d="M784 16h16v16h-16z" fill="#7a6249"/><path d="M800 16h16v16h-16zm16 0h16v16h-16zm16 0h16v16h-16zm16 0h16v16h-16zm16 0h16v16h-16zm16 0h16v16h-16zm16 0h16v16h-16z" fill="#876c50"/><path d="M736 32h16v16h-16z" fill="#614e3a"/><path d="M752 32h16v16h-16z" fill="#6e5842"/><path d="M768 32h16v16h-16z" fill="#7a6249"/><path d="M784 32h16v16h-16zm16 0h16v16h-16zm16 0h16v16h-16zm16 0h16v16h-16zm16 0h16v16h-16zm16 0h16v16h-16zm16 0h16v16h-16zm16 0h16v16h-16zm16 0h16v16h-16z" fill="#876c50"/><path d="M720 48h16v16h-16z" fill="#614e3a"/><path d="M736 48h16v16h-16z" fill="#6e5842"/><path d="M752 48h16v16h-16z" fill="#7a6249"/><path d="M768 48h16v16h-16zm16 0h16v16h-16zm16 0h16v16h-16zm16 0h16v16h-16zm16 0h16v16h-16zm16 0h16v16h-16zm16 0h16v16h-16zm16 0h16v16h-16zm16 0h16v16h-16zm16 0h16v16h-16z" fill="#876c50"/><path d="M720 64h16v16h-16z" fill="#614e3a"/><path d="M736 64h16v16h-16z" fill="#6e5842"/><path d="M752 64h16v16h-16z" fill="#7a6249"/><path d="M768 64h16v16h-16z" fill="#876c50"/><path d="M784 64h16v16h-16zm16 0h16v16h-16zm16 0h16v16h-16zm16 0h16v16h-16zm16 0h16v16h-16zm16 0h16v16h-16zm16 0h16v16h-16zm16 0h16v16h-16zm16 0h16v16h-16z" fill="#f3d1b6"/><path d="M720 80h16v16h-16z" fill="#614e3a"/><path d="M736 80h16v16h-16z" fill="#6e5842"/><path d="M752 80h16v16h-16z" fill="#7a6249"/><path d="M768 80h16v16h-16z" fill="#f3d1b6"/><path fill="#ffdbbf" d="M784 80v128h16v16h32v-16h16v-16h32v16h16v16h32V80zm32 64h16v32h-16zm80 0h16v32h-16z"/><path d="M720 96h16v16h-16z" fill="#614e3a"/><path d="M736 96h16v16h-16z" fill="#6e5842"/><path d="M752 96h16v16h-16z" fill="#7a6249"/><path d="M768 96h16v16h-16z" fill="#f3d1b6"/><path d="M720 112h16v16h-16z" fill="#614e3a"/><path d="M736 112h16v16h-16z" fill="#6e5842"/><path d="M752 112h16v16h-16z" fill="#7a6249"/><path d="M768 112h16v16h-16z" fill="#f3d1b6"/><path d="M720 128h16v16h-16z" fill="#614e3a"/><path d="M736 128h16v16h-16z" fill="#6e5842"/><path d="M752 128h16v16h-16z" fill="#7a6249"/><path d="M768 128h16v16h-16z" fill="#f3d1b6"/><path d="M720 144h16v16h-16z" fill="#614e3a"/><path d="M736 144h16v16h-16z" fill="#6e5842"/><path d="M752 144h16v16h-16z" fill="#7a6249"/><path d="M768 144h16v16h-16z" fill="#f3d1b6"/><path d="M816 144h16v16h-16zm80 0h16v16h-16z" fill="#5f7b9f"/><path d="M720 160h16v16h-16z" fill="#e5c5ab"/><path d="M736 160h16v16h-16z" fill="#ffdbbf"/><path d="M752 160h16v16h-16z" fill="#7a6249"/><path d="M768 160h16v16h-16z" fill="#f3d1b6"/><path d="M816 160h16v16h-16z" fill="#7090b8"/><path d="M896 160h16v16h-16z" fill="#708cb8"/><path d="M720 176h16v16h-16z" fill="#e5c5ab"/><path d="M736 176h16v16h-16z" fill="#ffdbbf"/><path d="M752 176h16v16h-16z" fill="#e9c9b1"/><path d="M768 176h16v16h-16z" fill="#f3d1b6"/><path d="M720 192h16v16h-16z" fill="#e5c5ab"/><path d="M736 192h16v16h-16z" fill="#ffdbbf"/><path d="M752 192h16v16h-16z" fill="#7a6249"/><path d="M768 192h16v16h-16z" fill="#f3d1b6"/><path d="M848 192h16v16h-16zm16 0h16v16h-16z" fill="#876c50"/><path d="M752 208h16v16h-16z" fill="#7a6249"/><path d="M768 208h16v16h-16zm16 0h16v16h-16zm48 0h16v16h-16z" fill="#876c50"/><path fill="#ffdbbf" d="M848 208v16h-16v16h64v-16h-16v-16z"/><path d="M880 208h16v16h-16z" fill="#876c50"/><path d="M768 224h16v16h-16z" fill="#7a6249"/><path d="M784 224h16v16h-16zm16 0h16v16h-16zm16 0h16v16h-16zm80 0h16v16h-16z" fill="#876c50"/><path d="M784 240h16v16h-16z" fill="#7a6249"/><path d="M800 240h16v16h-16zm16 0h16v16h-16zm16 0h16v16h-16zm16 0h16v16h-16zm16 0h16v16h-16zm16 0h16v16h-16z" fill="#876c50"/><path d="M784 256h16v16h-16zm16 0h16v16h-16z" fill="#151515"/><path fill="#212121" d="M816 256v16h-32v16h-16v128h16v-80h16v80h32V256z"/><path d="M832 256h16v16h-16zm16 0h16v16h-16zm16 0h16v16h-16z" fill="#876c50"/><path fill="#212121" d="M880 256v160h48V288h-16v-16h-16v-16z"/><path d="M768 272h16v16h-16z" fill="#151515"/><path fill="#422939" d="M832 272v32h48v-32z"/><path d="M752 288h16v16h-16zm0 16h16v16h-16z" fill="#151515"/><path d="M832 304h16v16h-16zm16 0h16v16h-16zm16 0h16v16h-16z" fill="#e6eaff"/><path d="M736 320h16v16h-16z" fill="#121212"/><path d="M752 320h16v16h-16z" fill="#151515"/><path d="M832 320h16v16h-16z" fill="#422939"/><path d="M848 320h16v16h-16z" fill="#e6eaff"/><path d="M864 320h16v16h-16z" fill="#422939"/><path d="M736 336h16v16h-16z" fill="#121212"/><path d="M752 336h16v16h-16zm32 0h16v16h-16z" fill="#151515"/><path d="M832 336h16v16h-16z" fill="#e6eaff"/><path d="M848 336h16v16h-16z" fill="#422939"/><path d="M864 336h16v16h-16z" fill="#e6eaff"/><path d="M736 352h16v16h-16z" fill="#121212"/><path d="M752 352h16v16h-16zm32 0h16v16h-16z" fill="#151515"/><path d="M832 352h16v16h-16zm16 0h16v16h-16zm16 0h16v16h-16z" fill="#e6eaff"/><path d="M736 368h16v16h-16z" fill="#121212"/><path d="M752 368h16v16h-16zm32 0h16v16h-16z" fill="#151515"/><path fill="#422939" d="M832 368v48h48v-48z"/><path d="M736 384h16v16h-16z" fill="#121212"/><path d="M752 384h16v16h-16zm32 0h16v16h-16z" fill="#151515"/><path d="M736 400h16v16h-16z" fill="#121212"/><path d="M752 400h16v16h-16zm32 0h16v16h-16z" fill="#151515"/><path d="M736 416h16v16h-16z" fill="#dbbca4"/><path d="M752 416h16v16h-16z" fill="#e5c5ab"/><path d="M768 416h16v16h-16z" fill="#ffdbbf"/><path d="M784 416h16v16h-16z" fill="#1c1f29"/><path fill="#2c3242" d="M800 416v96h16v-64h64v64h16v-80h16v-16z"/><path d="M912 416h16v16h-16z" fill="#ffdbbf"/><path d="M752 432h16v16h-16z" fill="#e5c5ab"/><path d="M768 432h16v16h-16z" fill="#ffdbbf"/><path d="M784 432h16v16h-16z" fill="#1c1f29"/><path d="M896 432h16v16h-16z" fill="#e5c5ab"/><path d="M912 432h16v16h-16z" fill="#ffdbbf"/><path d="M784 448h16v16h-16zm80 0h16v16h-16zm-80 16h16v16h-16zm80 0h16v16h-16zm-80 16h16v16h-16zm80 0h16v16h-16zm-80 16h16v16h-16zm80 0h16v16h-16z" fill="#1c1f29"/><path d="M784 512h16v16h-16zm16 0h16v16h-16zm64 0h16v16h-16zm16 0h16v16h-16z"/><path d="M992 112h16v16h-16z" fill="#5c4936"/><path d="M1008 112h16v16h-16z" fill="#66513c"/><path d="M1024 112h16v16h-16z" fill="#715b43"/><path d="M1040 112h16v16h-16z" fill="#7d644a"/><path d="M1056 112h16v16h-16zm16 0h16v16h-16zm16 0h16v16h-16zm16 0h16v16h-16zm16 0h16v16h-16z" fill="#876c50"/><path d="M976 128h16v16h-16z" fill="#5c4936"/><path d="M992 128h16v16h-16z" fill="#66513c"/><path d="M1008 128h16v16h-16z" fill="#715b43"/><path d="M1024 128h16v16h-16z" fill="#7d644a"/><path d="M1040 128h16v16h-16zm16 0h16v16h-16zm16 0h16v16h-16zm16 0h16v16h-16zm16 0h16v16h-16zm16 0h16v16h-16zm16 0h16v16h-16z" fill="#876c50"/><path d="M960 144h16v16h-16z" fill="#5c4936"/><path d="M976 144h16v16h-16z" fill="#66513c"/><path d="M992 144h16v16h-16z" fill="#715b43"/><path d="M1008 144h16v16h-16z" fill="#7d644a"/><path d="M1024 144h16v16h-16zm16 0h16v16h-16zm16 0h16v16h-16zm16 0h16v16h-16zm16 0h16v16h-16zm16 0h16v16h-16zm16 0h16v16h-16zm16 0h16v16h-16zm16 0h16v16h-16z" fill="#876c50"/><path d="M944 160h16v16h-16z" fill="#5c4936"/><path d="M960 160h16v16h-16z" fill="#66513c"/><path d="M976 160h16v16h-16z" fill="#715b43"/><path d="M992 160h16v16h-16z" fill="#7d644a"/><path d="M1008 160h16v16h-16zm16 0h16v16h-16zm16 0h16v16h-16zm16 0h16v16h-16zm16 0h16v16h-16zm16 0h16v16h-16zm16 0h16v16h-16zm16 0h16v16h-16zm16 0h16v16h-16zm16 0h16v16h-16z" fill="#876c50"/><path d="M944 176h16v16h-16z" fill="#5c4936"/><path d="M960 176h16v16h-16z" fill="#66513c"/><path d="M976 176h16v16h-16z" fill="#715b43"/><path d="M992 176h16v16h-16z" fill="#7d644a"/><path d="M1008 176h16v16h-16zm16 0h16v16h-16zm16 0h16v16h-16zm16 0h16v16h-16z" fill="#876c50"/><path d="M1072 176h16v16h-16zm16 0h16v16h-16z" fill="#f3d1b6"/><path d="M1104 176h16v16h-16zm16 0h16v16h-16zm16 0h16v16h-16zm16 0h16v16h-16z" fill="#876c50"/><path d="M944 192h16v16h-16z" fill="#5c4936"/><path d="M960 192h16v16h-16z" fill="#66513c"/><path d="M976 192h16v16h-16z" fill="#715b43"/><path d="M992 192h16v16h-16z" fill="#7d644a"/><path d="M1008 192h16v16h-16zm16 0h16v16h-16z" fill="#876c50"/><path d="M1040 192h16v16h-16zm16 0h16v16h-16zm16 0h16v16h-16zm16 0h16v16h-16zm16 0h16v16h-16zm16 0h16v16h-16z" fill="#ffdbbf"/><path d="M1136 192h16v16h-16zm16 0h16v16h-16z" fill="#876c50"/><path d="M944 208h16v16h-16z" fill="#5c4936"/><path d="M960 208h16v16h-16z" fill="#66513c"/><path d="M976 208h16v16h-16z" fill="#715b43"/><path d="M992 208h16v16h-16z" fill="#7d644a"/><path d="M1008 208h16v16h-16z" fill="#876c50"/><path d="M1024 208h16v16h-16zm16 0h16v16h-16zm16 0h16v16h-16zm16 0h16v16h-16zm16 0h16v16h-16zm16 0h16v16h-16zm16 0h16v16h-16zm16 0h16v16h-16z" fill="#ffdbbf"/><path d="M1152 208h16v16h-16z" fill="#876c50"/><path d="M944 224h16v16h-16z" fill="#5c4936"/><path d="M960 224h16v16h-16z" fill="#66513c"/><path d="M976 224h16v16h-16z" fill="#715b43"/><path d="M992 224h16v16h-16z" fill="#7d644a"/><path d="M1008 224h16v16h-16z" fill="#876c50"/><path d="M1024 224h16v16h-16zm16 0h16v16h-16zm16 0h16v16h-16zm16 0h16v16h-16zm16 0h16v16h-16zm16 0h16v16h-16zm16 0h16v16h-16zm16 0h16v16h-16z" fill="#ffdbbf"/><path d="M1152 224h16v16h-16z" fill="#876c50"/><path d="M944 240h16v16h-16z" fill="#5c4936"/><path d="M960 240h16v16h-16z" fill="#66513c"/><path d="M976 240h16v16h-16z" fill="#715b43"/><path d="M992 240h16v16h-16z" fill="#7d644a"/><path d="M1008 240h16v16h-16z" fill="#f3d1b6"/><path d="M1024 240h16v16h-16z" fill="#ffdbbf"/><path d="M1040 240h16v16h-16z" fill="#6f7b8f"/><path d="M1056 240h16v16h-16zm16 0h16v16h-16zm16 0h16v16h-16zm16 0h16v16h-16z" fill="#ffdbbf"/><path d="M1120 240h16v16h-16z" fill="#6f7b8f"/><path d="M1136 240h16v16h-16z" fill="#ffdbbf"/><path d="M1152 240h16v16h-16z" fill="#876c50"/><path d="M944 256h16v16h-16z" fill="#5c4936"/><path d="M960 256h16v16h-16z" fill="#66513c"/><path d="M976 256h16v16h-16z" fill="#715b43"/><path d="M992 256h16v16h-16z" fill="#7d644a"/><path d="M1008 256h16v16h-16z" fill="#f3d1b6"/><path d="M1024 256h16v16h-16z" fill="#ffdbbf"/><path d="M1040 256h16v16h-16z" fill="#8190a7"/><path d="M1056 256h16v16h-16zm16 0h16v16h-16zm16 0h16v16h-16zm16 0h16v16h-16z" fill="#ffdbbf"/><path d="M1120 256h16v16h-16z" fill="#8190a7"/><path d="M1136 256h16v16h-16z" fill="#ffdbbf"/><path d="M1152 256h16v16h-16z" fill="#876c50"/><path d="M944 272h16v16h-16z" fill="#5c4936"/><path d="M960 272h16v16h-16z" fill="#66513c"/><path d="M976 272h16v16h-16z" fill="#715b43"/><path d="M992 272h16v16h-16z" fill="#7d644a"/><path d="M1008 272h16v16h-16z" fill="#f3d1b6"/><path d="M1024 272h16v16h-16zm16 0h16v16h-16zm16 0h16v16h-16zm16 0h16v16h-16zm16 0h16v16h-16zm16 0h16v16h-16zm16 0h16v16h-16zm16 0h16v16h-16z" fill="#ffdbbf"/><path d="M1152 272h16v16h-16z" fill="#876c50"/><path d="M944 288h16v16h-16z" fill="#5c4936"/><path d="M960 288h16v16h-16z" fill="#66513c"/><path d="M976 288h16v16h-16z" fill="#715b43"/><path d="M992 288h16v16h-16z" fill="#7d644a"/><path d="M1008 288h16v16h-16z" fill="#f3d1b6"/><path d="M1024 288h16v16h-16zm16 0h16v16h-16z" fill="#ffdbbf"/><path fill="#fff" d="M1056 288v16h16v16h32v-32h-32z"/><path d="M1104 288h16v16h-16zm16 0h16v16h-16zm16 0h16v16h-16z" fill="#ffdbbf"/><path d="M944 304h16v16h-16z" fill="#5c4936"/><path d="M960 304h16v16h-16z" fill="#66513c"/><path d="M976 304h16v16h-16z" fill="#715b43"/><path d="M992 304h16v16h-16z" fill="#7d644a"/><path d="M1008 304h16v16h-16z" fill="#e5c5ab"/><path d="M1024 304h16v16h-16z" fill="#f3d1b6"/><path d="M1040 304h16v16h-16zm16 0h16v16h-16zm48 0h16v16h-16zm16 0h16v16h-16z" fill="#ffdbbf"/><path d="M1136 304h16v16h-16z" fill="#876c50"/><path d="M944 320h16v16h-16z" fill="#5c4936"/><path d="M960 320h16v16h-16z" fill="#66513c"/><path d="M976 320h16v16h-16z" fill="#715b43"/><path d="M992 320h16v16h-16z" fill="#7d644a"/><path d="M1008 320h16v16h-16z" fill="#715b43"/><path d="M1024 320h16v16h-16z" fill="#e5c5ab"/><path d="M1040 320h16v16h-16z" fill="#f3d1b6"/><path d="M1056 320h16v16h-16zm16 0h16v16h-16zm16 0h16v16h-16zm16 0h16v16h-16z" fill="#ffdbbf"/><path d="M1120 320h16v16h-16z" fill="#7d644a"/><path d="M1136 320h16v16h-16z" fill="#876c50"/><path d="M960 336h16v16h-16z" fill="#66513c"/><path d="M976 336h16v16h-16z" fill="#715b43"/><path d="M992 336h16v16h-16zm16 0h16v16h-16z" fill="#7d644a"/><path fill="#1b2c61" d="M1024 336v16h-16v96h16v-64h16v48h80v16h16v-96h-16v-16h-16v64h-32v-64z"/><path d="M1072 336h16v16h-16zm16 0h16v16h-16z" fill="#ffdbbf"/><path d="M1120 336h16v16h-16z" fill="#7d644a"/><path d="M1136 336h16v16h-16z" fill="#876c50"/><path d="M976 352h16v16h-16z" fill="#715b43"/><path d="M992 352h16v16h-16z" fill="#7d644a"/><path d="M1072 352h16v16h-16zm16 0h16v16h-16z" fill="#141414"/><path d="M992 368h16v16h-16z" fill="#162450"/><path d="M1072 368h16v16h-16zm16 0h16v16h-16z" fill="#ffb800"/><path d="M992 384h16v16h-16zm32 0h16v16h-16z" fill="#162450"/><path d="M1072 384h16v16h-16zm16 0h16v16h-16z" fill="#f44722"/><path d="M992 400h16v16h-16zm32 0h16v16h-16zm-32 16h16v16h-16zm32 0h16v16h-16zm-32 16h16v16h-16z" fill="#162450"/><path fill="#101010" d="M1024 432v48h112v-16h-16v-32z"/><path d="M992 448h16v16h-16z" fill="#eecdb4"/><path d="M1008 448h16v16h-16zm112 0h16v16h-16z" fill="#ffdbbf"/><path d="M1008 464h16v16h-16z" fill="#0b0b0b"/><path d="M1024 480h16v16h-16z" fill="#1a1a1a"/><path d="M1040 480h16v16h-16z" fill="#2d2d2d"/><path d="M1088 480h16v16h-16z" fill="#1a1a1a"/><path d="M1104 480h16v16h-16z" fill="#2d2d2d"/><path d="M1024 496h16v16h-16z" fill="#1a1a1a"/><path d="M1040 496h16v16h-16z" fill="#2d2d2d"/><path d="M1088 496h16v16h-16z" fill="#1a1a1a"/><path d="M1104 496h16v16h-16z" fill="#2d2d2d"/><path d="M1024 512h16v16h-16z" fill="#ccc"/><path d="M1040 512h16v16h-16z" fill="#efefef"/><path d="M1088 512h16v16h-16z" fill="#ccc"/><path d="M1104 512h16v16h-16z" fill="#efefef"/></svg>